<svg width="170" height="245" viewBox="0 0 170 245" fill="none" xmlns="http://www.w3.org/2000/svg">
<path d="M0 0C56.1 0 112.2 0 170 0C170 12.5967 170 25.1933 170 38.1717C148.672 38.1717 127.343 38.1717 105.369 38.1717C105.324 57.1362 105.324 57.1362 105.317 76.1007C105.318 78.6609 105.32 81.2212 105.321 83.7814C105.321 84.2627 105.321 84.2627 105.321 84.7537C105.323 89.925 105.311 95.0961 105.294 100.267C105.277 105.58 105.275 110.892 105.286 116.204C105.293 119.478 105.288 122.753 105.268 126.027C105.256 128.277 105.258 130.526 105.271 132.775C105.278 134.071 105.277 135.365 105.263 136.661C105.2 142.845 105.587 146.773 109.677 151.518C110.295 152.411 110.865 153.323 111.44 154.245C112.955 156.608 114.513 158.942 116.081 161.271C119.832 166.842 123.564 172.426 127.304 178.005C127.433 134.945 127.563 91.8847 127.696 47.5199C138.295 47.5199 148.895 47.5199 159.816 47.5199C159.816 112.688 159.816 177.857 159.816 245C150.509 245 141.202 245 131.613 245C130.069 242.953 129.128 241.686 128.088 239.547C127.421 238.461 126.712 237.405 126.004 236.346C125.797 236.034 125.59 235.723 125.377 235.402C124.699 234.381 124.018 233.361 123.338 232.341C122.866 231.63 122.393 230.92 121.921 230.209C120.943 228.737 119.965 227.265 118.986 225.794C116.891 222.644 114.802 219.491 112.714 216.336C112.089 215.391 111.463 214.447 110.837 213.503C110.451 212.921 110.066 212.339 109.68 211.756C109.51 211.499 109.339 211.242 109.164 210.978C108.001 209.22 106.882 207.445 105.76 205.66C105.631 218.642 105.502 231.624 105.369 245C91.9253 245 78.482 245 64.6313 245C64.6625 241.974 64.6938 238.948 64.7259 235.83C64.8204 226.098 64.8737 216.367 64.9017 206.634C64.9061 205.118 64.9109 203.601 64.9158 202.084C64.9168 201.782 64.9178 201.48 64.9188 201.169C64.9356 196.308 64.9813 191.448 65.0381 186.588C65.0959 181.584 65.1217 176.581 65.119 171.577C65.1183 168.773 65.1317 165.97 65.1819 163.166C65.3918 151.016 65.5015 141.061 56.9988 131.619C55.5385 129.938 54.3727 128.102 53.1923 126.222C52.7905 125.611 52.3873 125.002 51.982 124.394C51.791 124.106 51.5999 123.817 51.4031 123.52C51.0085 122.925 50.6139 122.329 50.2192 121.734C49.0626 119.989 47.9077 118.244 46.7563 116.495C46.398 115.952 46.0393 115.409 45.68 114.866C45.1752 114.102 44.6727 113.336 44.1709 112.571C44.0204 112.344 43.8699 112.117 43.7149 111.883C42.6959 110.32 42.6959 110.32 42.6959 109.452C42.4373 109.452 42.1788 109.452 41.9124 109.452C41.9124 154.183 41.9124 198.914 41.9124 245C31.4422 245 20.9719 245 10.1843 245C10.1843 179.703 10.1843 114.406 10.1843 47.1304C20.1376 47.1304 30.0908 47.1304 40.3456 47.1304C43.81 51.8671 43.81 51.8671 45.144 54.0685C47.0627 57.1811 49.0996 60.2133 51.142 63.2462C54.0251 67.5288 56.8839 71.8258 59.7129 76.1439C59.9656 76.5296 60.2183 76.9152 60.4787 77.3126C60.6955 77.6441 60.9123 77.9757 61.1356 78.3173C62.1617 79.8721 63.2022 81.4176 64.2396 82.965C64.3689 68.0547 64.4982 53.1444 64.6313 37.7822C43.303 37.7822 21.9747 37.7822 0 37.7822C0 25.3141 0 12.8459 0 0Z" fill="white"/>
</svg>
